<?xml version="1.0" encoding="utf-8"?>
<!-- Generator: Adobe Illustrator 21.0.0, SVG Export Plug-In . SVG Version: 6.00 Build 0)  -->
<svg version="1.1" id="Layer_1" xmlns="http://www.w3.org/2000/svg" xmlns:xlink="http://www.w3.org/1999/xlink" x="0px" y="0px"
	 viewBox="0 0 1400 980" style="enable-background:new 0 0 1400 980;" xml:space="preserve">
<style type="text/css">
	.st0{fill-rule:evenodd;clip-rule:evenodd;fill:#595758;}
	.st1{fill-rule:evenodd;clip-rule:evenodd;fill:#FFFFFF;}
	.st2{fill-rule:evenodd;clip-rule:evenodd;fill:#FDFDFF;}
</style>
<g>
	<path class="st0" d="M1137.4,701.9c-0.2,1.1-0.4,2.3-0.5,3.5c-3.4,28.3,24.3,51,52.2,41.4c18.5-6.4,23.3-23.3,24.3-24.6
		c2.1,1.2,7.4,0.7,10.2,0.4l35.3,0.1l9.9-0.1c0,14.7,10.8,26.2,25.4,26.3c14.9,0.1,25.6-11.6,25.7-26.3l3.9,0l0.7-13.4
		c0.6-1.6,1.4-26.1,1.7-30.1c0.6-11.7,1.9-19.1-6.2-24.9c-6.5-4.7-20.3-2.9-29.3-2.9c-5.4,0-29.2,0.6-32.2-0.3l-15.7-69.1
		c0-2.4,2.8,0.4,5.5-2.8c1.4-1.7,1.5-4.3,0.2-6.2c-2.3-3.3-9.5-2.2-14.2-2.2h-66.5c-4.3,0-12.3-0.9-14.7,1.6
		c-1.3,1.4-1.8,4.2-0.5,6.3c1.2,1.9,3.2,2.4,6.3,2.3l0.1,70.4c-1.5,1-2.9,1.4-4.2,2.5c-0.6,0.5-1.2,1-1.7,1.6
		c0.1-6.2,0.2-13.8-0.8-15.9c-1.6-3.2-5.8-4.5-7.4-3.1c-1.4,1.2-0.6,3.1,0.5,3.6c1.9,0.8,3.1,0.3,3.1,2.9v19.8c0,1.1-1.1,1-3.4,1.6
		c-11.8,3.4-9.8-0.4-9.8,19.2v14.5C1135.2,700.9,1135.7,701.7,1137.4,701.9L1137.4,701.9z M1291.6,712.5c7-1.8,12.3,3,13.6,8.2
		c1.6,6.6-2.8,12.2-7.8,13.6C1282.7,738.3,1276.6,716.5,1291.6,712.5L1291.6,712.5z M1172,691.5c11.2-2.6,20.3,5.5,22.2,14.3
		c2.3,11.1-5.2,20.4-14.5,22.2C1155.5,732.8,1147.5,697.2,1172,691.5L1172,691.5z M1169.2,641.5c-0.8-3.9-0.1-42.5-0.3-50.5
		l65.4,0.1c0.9,1.6,11.6,48.3,11.6,50.3L1169.2,641.5z"/>
	<g>
		<path class="st0" d="M936.3,246.7l-0.1,42.6l20.8,5.9c0.3-7.7-1.1-31.1,1.2-35.8c2.5-5.1,9.2-7.2,11.7-4.9c2.2,2,0.9,5-0.9,5.7
			c-3,1.3-5,0.4-5,4.7v31.4c0,1.7,1.8,1.5,5.4,2.6c18.8,5.4,15.6-0.7,15.6,30.5v23c0,6.6-1.7,5.9-9.2,5.9c-4.2,0-4.4-1.3-5-5.1
			c-1.3-8.6-5.3-14.9-10.9-20.4c-14.9-14.7-43.5-12.2-54.9,9.7c-9.1,17.5,6.1,15.9-25.9,15.9c-27.8,0-55.5,0-83.3,0
			c-19.4,0-20.6,2.3-20.3-9.3h-29.7c-2.5,0-4.6-2.1-4.6-4.6l0,0c0-2.5,2.1-4.6,4.6-4.6h29.9c0-0.9,0-1.8,0-2.8
			c0-3.8-0.1-6.4,3.8-6.6c3.2-0.2,7.2,0,10.5,0l81.1,0c-0.6-6.6-7.9-16.3-11-19.6c-8.5-9.1-9.7-3.6-3.9-19.4l15.2-43
			c0.1-0.6,0.1,0.3,0-0.6c0-1,0.1-0.4-0.3-1c-1.8-0.5-3.4-0.1-4.3-1.8c-0.9-1.8-0.2-3.8,1-4.6c2.1-1.4,34.1-0.6,38-0.6
			c8.5,0,17,0,25.5,0c3.4,0,9.6-1,11.2,1.6c1,1.6,0.5,3.6-0.6,4.6C940.5,247.1,938.5,246.4,936.3,246.7L936.3,246.7z M924.1,295.2
			h-55.5c-2.5,0-4.6,2.1-4.6,4.6l0,0c0,2.5,2.1,4.6,4.6,4.6h55.5c2.5,0,4.6-2.1,4.6-4.6l0,0C928.8,297.3,926.7,295.2,924.1,295.2z"
			/>
		<path class="st0" d="M939.3,330.5c14.5,2,26.6,14.1,24.7,30.9c-1.6,14.2-14.7,26.5-31,24.5c-25.4-3.1-32.6-34.8-14.6-49.2
			C923.4,332.7,930.9,329.3,939.3,330.5z"/>
		<polygon class="st1" points="929.2,288.4 864.9,288.4 879.4,246.7 929.2,246.6 		"/>
		<path class="st1" d="M939.1,344.6c18.2,4.2,12.1,30.9-5.8,27.2c-6.6-1.3-12.3-8.1-10.7-16.3C923.9,348.8,930.7,342.7,939.1,344.6z
			"/>
		<path class="st0" d="M937.3,351.4c9.4,1.8,6.9,15.2-2.5,13.7C926.3,363.6,928.3,349.6,937.3,351.4z"/>
		<g>
			<path class="st0" d="M828.6,302.6c21.9,3,40.3,21.4,37.4,47c-2.4,21.5-22.3,40.3-47.1,37.2c-38.6-4.8-49.6-52.8-22.1-74.7
				C804.5,306,815.8,300.9,828.6,302.6z"/>
			<path class="st1" d="M828.3,324.1c27.6,6.3,18.4,46.9-8.8,41.3c-10-2-18.6-12.3-16.3-24.8C805.2,330.5,815.6,321.2,828.3,324.1z"
				/>
			<path class="st0" d="M825.6,334.3c14.2,2.7,10.5,23.1-3.7,20.8C808.9,352.9,811.9,331.7,825.6,334.3z"/>
		</g>
		<circle class="st0" cx="978.3" cy="255.8" r="5"/>
		<circle class="st0" cx="993.9" cy="254.5" r="3.7"/>
		<circle class="st0" cx="986.4" cy="247.2" r="3.7"/>
	</g>
	<g>
		<path class="st0" d="M221.6,248.7l-0.1,59l44,0l-0.2-59L221.6,248.7L221.6,248.7z M293.7,299.1c17,1.3,17.1,9.5,17.2,25.5
			c18.5,5.5,32.1,27.5,19,48.8c-12.3,19.9-36,15.8-62.8,15.8c-26.3,0-52.6,0.1-78.8,0c-13.3-0.1-23.3,1.4-34.4-4.3
			c-13.4-7-14.1-16.6-17.5-22l-13.8,4.6l-0.1,15.8l-67.7,0.3c4.1-3.6,23-6.6,36.2-31.5c9.1-17,12.7-34.2,11.1-56.7
			c26.7-0.3,19.1,0.1,20.5,36l24.4-8c0.6-17.2-3.6-28.3,11.7-36.5c3.7-2,2.3-0.3,4-3.3c0-16-3.6-31.8,14.9-32.1l0.1,32.7l28.2,0.5
			c0-11.5,0-22.8,0-34c-0.1-22.6,16.5-17.4,51.2-17.4c11.2,0,23.2-0.5,23.5,10.6c4,4.7-0.7,44.5,1.9,55.7l2.5-0.3L293.7,299.1z"/>
		<path class="st1" d="M306.5,339.4c17.5,6.9,14.4,24.4,5.4,31c-8.5,6.2-34.1,3.9-46.9,3.9c-15.1,0-92.4,1.6-100.5-1.2
			c-13.5-4.7-17-22.6-5.6-30.9c9.2-6.7,33.9-4.1,47.2-4.1C221,338,299,336.4,306.5,339.4z"/>
		<polygon class="st1" points="221.4,307.6 221.6,248.7 265.3,248.6 265.5,307.7 		"/>
		<path class="st0" d="M292.1,342.9c-7.5,1-13.7,7.3-12.7,16c0.8,7.3,7.6,13.7,16,12.7c13.1-1.6,16.9-18,7.5-25.4
			C300.3,344,296.5,342.3,292.1,342.9z"/>
		<path class="st0" d="M263.3,342.9c-7.5,1-13.7,7.3-12.7,16c0.8,7.3,7.6,13.7,16,12.7c13.1-1.6,16.9-18,7.5-25.4
			C271.5,344,267.6,342.3,263.3,342.9z"/>
		<path class="st0" d="M234.4,342.9c-7.5,1-13.7,7.3-12.7,16c0.8,7.3,7.6,13.7,16,12.7c13.1-1.6,16.9-18,7.5-25.4
			C242.6,344,238.8,342.3,234.4,342.9z"/>
		<path class="st0" d="M205.6,342.9c-7.5,1-13.7,7.3-12.7,16c0.8,7.3,7.6,13.7,16,12.7c13.1-1.6,16.9-18,7.5-25.4
			C213.8,344,210,342.3,205.6,342.9z"/>
		<path class="st0" d="M176.8,342.9c-7.5,1-13.7,7.3-12.7,16c0.8,7.3,7.6,13.7,16,12.7c13.1-1.6,16.9-18,7.5-25.4
			C185,344,181.1,342.3,176.8,342.9z"/>
		<path class="st1" d="M292.2,350.2c-9.4,2.2-6.3,15.9,3,14c3.4-0.7,6.3-4.2,5.5-8.4C300.1,352.3,296.5,349.2,292.2,350.2z"/>
		<path class="st1" d="M263.4,350.2c-9.4,2.2-6.3,15.9,3,14c3.4-0.7,6.3-4.2,5.5-8.4C271.3,352.3,267.7,349.2,263.4,350.2z"/>
		<path class="st1" d="M234.6,350.2c-9.4,2.2-6.3,15.9,3,14c3.4-0.7,6.3-4.2,5.5-8.4C242.4,352.3,238.9,349.2,234.6,350.2z"/>
		<path class="st1" d="M205.7,350.2c-9.4,2.2-6.3,15.9,3,14c3.4-0.7,6.3-4.2,5.5-8.4C213.6,352.3,210,349.2,205.7,350.2z"/>
		<path class="st1" d="M176.9,350.2c-9.4,2.2-6.3,15.9,3,14c3.4-0.7,6.3-4.2,5.5-8.4C184.8,352.3,181.2,349.2,176.9,350.2z"/>
		<path class="st0" d="M293.2,353.6c-4.8,0.9-3.6,7.9,1.3,7.1C298.8,360,297.8,352.8,293.2,353.6z"/>
		<path class="st0" d="M264.3,353.6c-4.8,0.9-3.6,7.9,1.3,7.1C270,360,269,352.8,264.3,353.6z"/>
		<path class="st0" d="M235.5,353.6c-4.8,0.9-3.6,7.9,1.3,7.1C241.2,360,240.1,352.8,235.5,353.6z"/>
		<path class="st0" d="M206.6,353.6c-4.8,0.9-3.6,7.9,1.3,7.1C212.3,360,211.3,352.8,206.6,353.6z"/>
		<path class="st0" d="M177.8,353.6c-4.8,0.9-3.6,7.9,1.3,7.1C183.5,360,182.4,352.8,177.8,353.6z"/>
		<rect x="196.9" y="231" class="st0" width="94" height="18.5"/>
		<rect x="45.2" y="378.3" class="st0" width="77.7" height="9.3"/>
	</g>
	<g>
		<path class="st0" d="M621.9,245.4c-3.2,0.8-6.3,1.8-9.4,2.7c-4.7,1.3-7.6,1.4-8.7,3.7c-2.5,5.8-5.1,11.2-7.7,16.9
			c-1.9,4.1-14.5,32.3-15.7,33.7l-2.5,0.1l0-3h-3.1c-3-9.9-8.5-24.6-12.1-35.1l-9.1-26.4c-1.3-3.7-2.1-5.2-6.8-5.2h-53.1
			c-6.4,0-6.6,3.6-6.6,9.4c0,8.3,0.4,43.1-0.1,48.6c-7,0.1-9-0.9-15.8,1.6c-8.4,3.1-15.3,10.5-17.8,19.2c-1.7,5.7-1.1,11.6-1.2,17.8
			c1.2-0.8,2.6-3.2,4.3-5.3c3.8-4.6,9.9-9.1,15.8-11.4c24.9-9.7,50.7,5.8,55.4,29.9c1.4,7.3,0.4,10.5-0.2,17.3l25.1,0
			c-0.5-10.6-1-16.6,5.7-26.8c3.6-5.3,11.2-12.1,19.4-14.1l0.1-3.1l10.9-0.1c1.2-1.4,21-45.2,23.9-51.5c0.8-1.8,0.8-2.7,2.8-3.3
			c1.9-0.6,7.2-2.2,9-2.3c0.4,1.8,0.7,3.6,1,5.4c1,5.4,3.3,3.5,13.9,1.4l37.7-7.6c4.2-2-0.3-6.8-9-7.8c-2.4-0.3-9.8-0.8-11.6-1.5
			c0-0.2-19.2-24.4-31.8-11.7C620.6,240.7,621.5,238.8,621.9,245.4z"/>
		<path class="st1" d="M563.6,297.7l-19.4-54.4l-46.5-0.1c-0.6,11.4-0.1,31.9-0.1,45c0,2.7-1.6,9.6,5.8,9.6
			C523.5,297.7,543.5,297.7,563.6,297.7z"/>
		<g>
			<path class="st0" d="M483.8,315.9c-18.5,2.5-34,18-31.6,39.6c2,18.1,18.8,34,39.7,31.4c32.5-4,41.8-44.5,18.6-63
				C504.1,318.8,494.6,314.4,483.8,315.9z"/>
			<path class="st1" d="M484.1,334c-23.2,5.3-15.5,39.5,7.4,34.8c8.4-1.7,15.7-10.4,13.7-20.9C503.6,339.4,494.8,331.6,484.1,334z"
				/>
			<path class="st0" d="M486.4,342.6c-12,2.3-8.9,19.5,3.1,17.5C500.5,358.3,497.9,340.4,486.4,342.6z"/>
		</g>
		<g>
			<path class="st0" d="M583.3,329.4c-15,2.1-27.6,14.6-25.6,32.1c1.7,14.7,15.3,27.5,32.2,25.4c26.4-3.2,33.9-36.1,15.1-51.1
				C599.7,331.7,592,328.2,583.3,329.4z"/>
			<path class="st1" d="M583.5,344.1c-18.9,4.3-12.6,32,6,28.2c6.8-1.4,12.7-8.4,11.1-16.9C599.3,348.4,592.2,342.1,583.5,344.1z"/>
			<path class="st0" d="M585.4,351.1c-9.7,1.9-7.2,15.8,2.6,14.2C596.8,363.8,594.7,349.3,585.4,351.1z"/>
		</g>
		<rect x="443.1" y="303.4" class="st0" width="20.4" height="9.8"/>
	</g>
	<g>
		<path class="st0" d="M784.6,657.6l-3.1,2.8c-2,1.5-2.1,1.7-4.2,2.8c1.3-18.1,14.3-31.4,28.3-36.4c8.2-2.9,42.8-3,55-2.4l5.8,3.5
			c2.5-4.3,5.3-5.2,8.1-8.6c-2.7-4.8-7-5-3.8-11.1c6.3-0.7,8.3,4.7,12.2,8.3c3.7,3.5,8.1,6.3,6.6,12.4c-7.7,2.3-6.1-2.6-11.6-5
			c-1.3,1.8-4.7,5.4-6.7,7.1c-2.7,2.4-5.7,3.4-6.2,7.8c-0.6,5.4-1.1,23.4,1,27l2.9,1.2c2.6,0.5,11.1,0.4,12.4-0.9
			c2.8-5.6,0.5-20.3,1.1-27.8L939,638l-0.3-47h-53.3c-3.4,0-6.1-2.8-6.1-6.1v-15.6c0-3.4,2.8-6.1,6.1-6.1h59c3.4,0,6.1,2.8,6.1,6.1
			v15.6c0,0.5-0.1,1-0.2,1.4c0.5,6.4-0.3,17.8-0.3,38.6c0,27.2,6.7,16.1,9.1,30.9c-24.7-8.8-39.4-6.6-56.9,7.3
			c-4.8,3.8-11.6,13.2-14.5,21.8c-5.1,15.1-0.8,29.1-0.5,32.9l-27.1,0C872.2,685.2,842,630.5,784.6,657.6z"/>
		<g>
			<path class="st0" d="M804.7,657.2c-23.8,3.3-43.8,23.3-40.7,51c2.6,23.3,24.2,43.8,51.2,40.4c41.9-5.2,53.9-57.3,24-81.2
				C830.9,660.8,818.6,655.3,804.7,657.2z"/>
			<path class="st1" d="M805.1,680.5c-30,6.9-20,50.9,9.6,44.8c10.9-2.2,20.3-13.4,17.7-26.9C830.2,687.4,818.8,677.4,805.1,680.5z"
				/>
			<path class="st0" d="M808,691.6c-15.5,3-11.4,25.1,4.1,22.5C826.2,711.8,822.8,688.8,808,691.6z"/>
		</g>
		<g>
			<path class="st0" d="M941.2,656c23.8,3.3,43.8,23.3,40.7,51c-2.6,23.3-24.2,43.8-51.2,40.4c-41.9-5.2-53.9-57.3-24-81.2
				C915,659.7,927.3,654.1,941.2,656z"/>
			<path class="st1" d="M940.8,679.4c30,6.9,20,50.9-9.6,44.8c-10.9-2.2-20.3-13.4-17.7-26.9C915.7,686.3,927,676.2,940.8,679.4z"/>
			<path class="st0" d="M937.8,690.5c15.5,3,11.4,25.1-4.1,22.6C919.7,710.7,923,687.6,937.8,690.5z"/>
		</g>
		<path class="st0" d="M812.3,696.5c6.7,2.1,6.5,10.9,0.6,13.1c-3.8,1.4-5.8-1.3-9.1-1.4c-6.2-0.2-25.8,0.5-45.6,0.7v-10.3
			c19-0.5,37.9-0.4,45.1-0.5C808.1,698,807.8,695.1,812.3,696.5z"/>
		<path class="st0" d="M933.6,695.4c-6.7,2.1-6.5,10.9-0.6,13.1c3.8,1.4,5.8-1.3,9.1-1.4c6.2-0.2,25.8,0.5,45.6,0.7v-10.3
			c-19-0.5-37.9-0.4-45.1-0.5C937.8,696.9,938.1,694,933.6,695.4z"/>
	</g>
	<g>
		<path class="st0" d="M157,655.2l1.4,0l0-3.4h3.4c3.3-10.9,9.4-27.2,13.4-38.9l10-29.2c1.5-4.1,2.3-5.7,7.6-5.7h58.8
			c7,0,7.3,4,7.3,10.4c0,9.2-0.4,47.7,0.1,53.8c7.8,0.1,9.9-1,17.5,1.7c9.3,3.4,16.9,11.6,19.7,21.2c1.8,6.3,1.2,12.9,1.3,19.7
			c-1.3-0.9-2.9-3.6-4.7-5.8c-4.2-5-10.9-10.1-17.5-12.7c-27.5-10.7-56.1,6.4-61.3,33.1c-1.6,8.1-0.4,11.6,0.2,19.1l-27.8,0
			c0.5-11.7,1.2-18.4-6.3-29.6c-4-5.9-12.4-13.4-21.5-15.7l-0.1-3.4l-1.5,0V655.2z"/>
		<path class="st1" d="M174.3,649.9l21.5-60.3l51.5-0.1c0.7,12.6,0.1,35.3,0.1,49.8c0,3,1.8,10.6-6.4,10.6
			C218.7,649.9,196.5,650,174.3,649.9z"/>
		<g>
			<path class="st0" d="M262.6,670.1c20.5,2.8,37.6,20,34.9,43.9c-2.3,20.1-20.8,37.6-44,34.7c-36-4.4-46.3-49.2-20.6-69.7
				C240.1,673.2,250.7,668.5,262.6,670.1z"/>
			<path class="st1" d="M262.3,690.2c25.7,5.9,17.2,43.7-8.2,38.5c-9.3-1.9-17.4-11.5-15.2-23.1
				C240.7,696.1,250.5,687.4,262.3,690.2z"/>
			<path class="st0" d="M259.8,699.7c13.3,2.5,9.8,21.6-3.5,19.4C244.2,717,247,697.2,259.8,699.7z"/>
		</g>
		<g>
			<path class="st0" d="M152.5,678.7c16.6,2.3,30.5,16.2,28.3,35.6c-1.8,16.3-16.9,30.5-35.6,28.2c-29.2-3.6-37.5-39.9-16.7-56.5
				C134.3,681.3,142.8,677.4,152.5,678.7z"/>
			<path class="st1" d="M152.2,695c20.9,4.8,13.9,35.5-6.7,31.2c-7.6-1.6-14.1-9.3-12.3-18.7C134.7,699.8,142.6,692.8,152.2,695z"/>
			<path class="st0" d="M150.2,702.7c10.8,2.1,8,17.5-2.8,15.7C137.5,716.8,139.9,700.7,150.2,702.7z"/>
		</g>
		<rect x="285" y="656.3" class="st0" width="22.6" height="10.8"/>
		<rect x="82.6" y="651.9" class="st0" width="79.2" height="17.1"/>
		<rect x="83.2" y="653.5" class="st0" width="8.8" height="72.5"/>
		<rect x="50.3" y="710.3" class="st0" width="40.6" height="15.6"/>
	</g>
	<g>
		<path class="st0" d="M603.1,657.7c5.7,0.5,11.3-0.5,16.9,0.7c11.2,2.3,12.9,7.6,17.4,9c37.9,11.4,41.2,61.4,6.2,77.8
			c-18.3,8.6-38.7,1.9-50.5-12.9c-5.8-7.3-7.9-15.5-8.3-27.3l-3.9,0c-0.5,6,0,13.3,2.2,18.8c0.8,1.9,1.7,3.2,2.3,4.7l-72.6,0.1
			l7-10.6c1.9-3.3,4.7-8.4,5.1-12.9l-6.6,0c-3.7,11.5-4.8,14-11.2,22.3c-10.3,13.4-30.5,20.7-48.6,17.2c-14-2.7-23-9.5-31.2-19.3
			c-2.7-3.3-4.2-6.5-6.2-10.6c-1.1-2.3-2.9-1.9-5.3-3.1c-20-9.4-21.3-36.6-5-48.4c2.6-1.9,7.6-4.9,11.9-5.1c-0.2,3.1-0.8,6.6,2,8.7
			c5.4-7.4,10.4-13.8,19.6-18.1c20.7-9.8,40.9-7.5,58,7.2c3.1,2.6,6.2,6.3,8.7,10.2c2.9,4.6,4,7.7,6.2,13.1l56,0l2.6-6.3l-55.7,0
			c-6.9-18.4-16.5-22.2-18.1-25.3l24.3,0c0.5-2.8,2.3-7,3.2-9.6c1.1-3.3,2.1-6.4,3.2-9.5c1.7-4.7,12.1-36.2,13.3-37.8
			c2-2.6,7.1-1.8,11-1.8l38.7,0c9.5,0,7.5,3.7,7.5,18.1v38.3C603.4,649.5,602.8,653.4,603.1,657.7z"/>
		<path class="st1" d="M631.5,680.1c13.4,2.6,25.4,15.6,22.2,32.5c-2.5,13.2-15.9,25-32.2,22c-13.3-2.5-25.4-15.5-22.4-32.2
			C601.6,688.9,614.9,677,631.5,680.1z"/>
		<polygon class="st1" points="594.2,645.8 536.2,645.8 553.2,598 594.1,597.9 		"/>
		<path class="st1" d="M437,714.2c31.2,0.5,25.9-9.3,33-9.3l34,0.1c-0.7,3.6-2.7,6.7-4.3,9.4c-4.6,7.9-14.7,14.6-24.8,16.6
			c-8.6,1.6-16.9-0.3-23.4-3.4C446.9,725.3,438.2,718.3,437,714.2z"/>
		<path class="st1" d="M499.8,674.2c-15.3-2.2-31.3-0.4-46.9-0.6c-5.6,0-10.1-0.8-15.2-1.1c4.5-8,17.8-16.9,31.9-16.1
			c7.1,0.4,13.3,2.3,18.3,5.5C491.5,664.3,498.5,670.1,499.8,674.2z"/>
		<g>
			<path class="st0" d="M629.3,684.4c11.7,1.6,21.6,11.5,20,25.1c-1.3,11.5-11.9,21.6-25.2,19.9c-20.6-2.5-26.5-28.2-11.8-40
				C616.4,686.2,622.4,683.5,629.3,684.4z"/>
			<path class="st1" d="M629.1,695.9c14.8,3.4,9.9,25.1-4.7,22.1c-5.4-1.1-10-6.6-8.7-13.2C616.7,699.3,622.3,694.4,629.1,695.9z"/>
			<path class="st0" d="M627.6,701.4c7.6,1.5,5.6,12.4-2,11.1C618.7,711.3,620.3,700,627.6,701.4z"/>
		</g>
		<g>
			<path class="st0" d="M471.4,664.6c15.8,2.2,29,15.4,27,33.8c-1.7,15.5-16.1,29-33.9,26.8c-27.8-3.4-35.7-38-15.9-53.8
				C454.1,667.1,462.2,663.4,471.4,664.6z"/>
			<path class="st1" d="M471.2,680.1c19.9,4.6,13.3,33.8-6.3,29.7c-7.2-1.5-13.4-8.9-11.7-17.8C454.5,684.7,462,678,471.2,680.1z"/>
			<path class="st0" d="M469.2,687.5c10.3,2,7.6,16.7-2.7,15C457.2,700.9,459.4,685.6,469.2,687.5z"/>
		</g>
		<rect x="521" y="586.9" class="st0" width="82.4" height="19.9"/>
	</g>
	<g>
		<path class="st0" d="M1103,245.9c4.7,8.6-3.5,3.4,9,5.2l47.6-0.1l2.3,74.8c57.9,1.6,168.3,5.4,192.9-57.5
			c-44,1.3-96.3,1.9-140.1,0.3c-16.1-0.6-31.7-16.2-45.5-22.5c-9.3-4.3-35.5-2.8-50-2.8c-2.3,0-7.2-0.1-9.3,0.2L1103,245.9z"/>
		<path class="st0" d="M1086.9,355.1l25.3,0.9c8.9-22.2,12.7-33,41.7-30.3l-0.6-67.3l-45.8,0.3c-3.8,4.1-17.4,33.4-19.1,39.3
			C1085.3,308.4,1087,342.2,1086.9,355.1z"/>
		<path class="st2" d="M1094.8,301.2c31.3-3.7,37.4-1.3,35.1-34.9l-18.8-0.2L1094.8,301.2z"/>
		<g>
			<path class="st0" d="M1149.3,332.1c14.6,2,26.9,14.3,25,31.4c-1.6,14.3-14.9,26.9-31.4,24.8c-25.7-3.2-33.1-35.2-14.7-49.9
				C1133.2,334.4,1140.7,331,1149.3,332.1z"/>
			<path class="st1" d="M1149,346.5c18.4,4.2,12.3,31.3-5.9,27.6c-6.7-1.4-12.4-8.2-10.9-16.5C1133.6,350.7,1140.6,344.5,1149,346.5
				z"/>
			<path class="st0" d="M1147.2,353.3c9.5,1.8,7,15.4-2.5,13.9C1136.1,365.7,1138.1,351.5,1147.2,353.3z"/>
		</g>
		<g>
			<path class="st0" d="M1315.8,332.1c14.6,2,26.9,14.3,25,31.4c-1.6,14.3-14.9,26.9-31.4,24.8c-25.7-3.2-33.1-35.2-14.7-49.9
				C1299.7,334.4,1307.2,331,1315.8,332.1z"/>
			<path class="st1" d="M1315.5,346.5c18.4,4.2,12.3,31.3-5.9,27.6c-6.7-1.4-12.4-8.2-10.9-16.5
				C1300.1,350.7,1307.1,344.5,1315.5,346.5z"/>
			<path class="st0" d="M1313.7,353.3c9.5,1.8,7,15.4-2.5,13.9C1302.6,365.7,1304.6,351.5,1313.7,353.3z"/>
		</g>
		<rect x="1161.3" y="288.7" class="st0" width="174.4" height="37.7"/>
	</g>
</g>
</svg>
